<svg xmlns="http://www.w3.org/2000/svg" viewBox="0 0 512 512" role="img" aria-labelledby="title desc">
  <title id="title">會考落點分析系統圖標</title>
  <desc id="desc">一本開放的升學指南，將分散的升學資訊節點整理並連接起來。</desc>
  <rect x="32" y="32" width="448" height="448" rx="108" fill="#f8fafc"/>
  <rect x="32" y="32" width="448" height="448" rx="108" fill="none" stroke="#cbd5e1" stroke-width="8"/>
  <path d="M96 152c0-20 16-36 36-36h112c25 0 45 20 45 45v238c0 8-9 13-16 8-12-9-27-15-44-15H132c-20 0-36-16-36-36V152Z" fill="#ffffff" stroke="#334155" stroke-width="14"/>
  <path d="M416 152c0-20-16-36-36-36H268c-25 0-45 20-45 45v238c0 8 9 13 16 8 12-9 27-15 44-15h97c20 0 36-16 36-36V152Z" fill="#eef2ff" stroke="#334155" stroke-width="14"/>
  <path d="M256 151v238" stroke="#334155" stroke-width="12" stroke-linecap="round"/>
  <path d="M142 194h70M142 234h52M300 194h70M300 234h52" stroke="#94a3b8" stroke-width="14" stroke-linecap="round"/>
  <path d="M156 318 218 272 286 306 356 246" fill="none" stroke="#6366f1" stroke-width="18" stroke-linecap="round" stroke-linejoin="round"/>
  <circle cx="156" cy="318" r="23" fill="#0f172a" stroke="#fff" stroke-width="8"/>
  <circle cx="218" cy="272" r="23" fill="#6366f1" stroke="#fff" stroke-width="8"/>
  <circle cx="286" cy="306" r="23" fill="#0f172a" stroke="#fff" stroke-width="8"/>
  <circle cx="356" cy="246" r="23" fill="#6366f1" stroke="#fff" stroke-width="8"/>
  <path d="M146 376h220" stroke="#cbd5e1" stroke-width="16" stroke-linecap="round"/>
</svg>
